<svg id="图层_1" data-name="图层 1" xmlns="http://www.w3.org/2000/svg" viewBox="0 0 461.61 459.77">
  <defs>
    <style>
      .cls-1 {
        fill: #0052d9;
      }
    </style>
  </defs>
  <path class="cls-1" d="M192.81,417.6c32.31-18.18,51.42-24.86,84.38-46.19,33.37-28.24,139.12-114.64,57.58-149.76-185.83-66.15,88-77.2,28.5-112.1-41.08,8.08,19.42-17.68,24.51-24.39-.5-1.55,27.74-12.33,26.5-17.88-6.07-2.5-14-2-15-10.42-3.33-10.6,13.86-17.46,21.31-24.1-5.72-26.91,27.51-15.46,41-21.76C463.31-2.09,421.5.83,411.76,0c-19.17,2.63-30.31,26.3-51.84,19,2.7-22.71-32.4-4.37-36.65,6.41-7.27,5.53-9.86,4-17.21-.07-16.81-.79-29.57,16.58-42.33-3.22-97.38,5.56-215.25,72.48-259,160.56-21,40.84,32.64,60.48,63.94,68.45,157.25,25.27,86.4,90.09,31.7,184.95-4.59,6.68-6.34,14.13-6.66,23.74"/>
</svg>
